<svg width="20" height="20" viewBox="0 0 20 20" fill="none" xmlns="http://www.w3.org/2000/svg">
<path d="M2.00001 12C3.10459 12 4.00003 11.1045 4.00003 9.99995C4.00003 8.89537 3.10459 7.99994 2.00001 7.99994C0.895437 7.99994 0 8.89537 0 9.99995C0 11.1045 0.895437 12 2.00001 12Z" fill="black"/>
<path d="M9.99995 12C11.1045 12 12 11.1045 12 9.99995C12 8.89537 11.1045 7.99994 9.99995 7.99994C8.89537 7.99994 7.99994 8.89537 7.99994 9.99995C7.99994 11.1045 8.89537 12 9.99995 12Z" fill="black"/>
<path d="M18 12C19.1046 12 20 11.1045 20 9.99995C20 8.89537 19.1046 7.99994 18 7.99994C16.8954 7.99994 16 8.89537 16 9.99995C16 11.1045 16.8954 12 18 12Z" fill="black"/>
</svg>
