<?xml version="1.0" encoding="iso-8859-1"?>
<!-- Generator: Adobe Illustrator 19.0.0, SVG Export Plug-In . SVG Version: 6.00 Build 0)  -->
<svg version="1.1" id="Capa_1" xmlns="http://www.w3.org/2000/svg" xmlns:xlink="http://www.w3.org/1999/xlink" x="0px" y="0px"
	 viewBox="0 0 453.129 453.129" style="enable-background:new 0 0 453.129 453.129;" xml:space="preserve">
<g>
	<g>
		<path d="M338.565,317.129h-64v-44.992c29.662-17.125,47.953-48.757,48-83.008h4c15.464,0,28-12.536,28-28s-12.536-28-28-28h-4.328
			l-3.016-72.152c-0.016-0.305-0.048-0.61-0.096-0.912c-6.155-38.838-42.63-65.332-81.468-59.177
			c-5.802,0.92-11.468,2.554-16.868,4.865l-35.92,15.376c-34.666,0.957-62.278,29.321-62.304,64c-0.001,0.38,0.026,0.76,0.08,1.136
			l6.696,46.864h-2.776c-15.464,0-28,12.536-28,28s12.536,28,28,28h4c0.047,34.251,18.338,65.883,48,83.008v44.992h-64
			c-30.913,0.035-55.965,25.087-56,56v72c0,4.418,3.582,8,8,8h320c4.418,0,8-3.582,8-8v-72
			C394.529,342.216,369.478,317.164,338.565,317.129z M322.565,149.129h4c6.627,0,12,5.373,12,12c0,6.627-5.373,12-12,12h-4V149.129
			z M130.564,173.129h-4c-6.627,0-12-5.373-12-12c0-6.627,5.373-12,12-12h4V173.129z M140.165,95.529l-1.6-10.944
			c0.328-26.284,21.714-47.427,48-47.456c1.084,0.002,2.157-0.218,3.152-0.648l37.376-16c28.029-11.991,60.471,1.01,72.462,29.039
			c1.732,4.048,2.973,8.29,3.698,12.633l0.512,12.232c-12.278-20.616-38.945-27.376-59.561-15.097
			c-1.032,0.614-2.038,1.271-3.015,1.969c-9.026,6.467-21.064,6.84-30.472,0.944l-3.496-2.192
			c-20.326-12.712-47.108-6.54-59.82,13.786c-2.332,3.729-4.084,7.791-5.196,12.046L140.165,95.529z M146.564,189.129v-47.152
			l11.2-52.384c4.011-14.61,19.106-23.202,33.716-19.191c2.567,0.705,5.019,1.78,7.276,3.191l3.504,2.192
			c14.898,9.344,33.966,8.753,48.256-1.496c12.329-8.805,29.462-5.947,38.266,6.382c1.171,1.639,2.157,3.403,2.942,5.258
			l14.84,56.232v46.968c0,44.183-35.817,80-80,80C182.382,269.129,146.564,233.312,146.564,189.129z M258.565,279.529v42.288l-32,32
			l-32-32v-42.288c10.268,3.683,21.092,5.577,32,5.6C237.473,285.106,248.297,283.212,258.565,279.529z M378.565,437.129h-304v-64
			c0.026-22.08,17.92-39.974,40-40h68.688l37.656,37.656c3.124,3.123,8.188,3.123,11.312,0l37.656-37.656h68.688
			c22.08,0.026,39.974,17.92,40,40V437.129z"/>
	</g>
</g>
<g>
	<g>
		<path d="M186.564,151.129c-7.732,0-14,6.268-14,14s6.268,14,14,14s14-6.268,14-14
			C200.556,157.401,194.293,151.138,186.564,151.129z M184.564,165.129c0-1.105,0.895-2,2-2s2,0.895,2,2
			C188.564,167.329,184.564,167.329,184.564,165.129z"/>
	</g>
</g>
<g>
	<g>
		<path d="M266.565,151.129c-7.732,0-14,6.268-14,14c0.009,7.728,6.272,13.991,14,14c7.732,0,14-6.268,14-14
			S274.297,151.129,266.565,151.129z M264.565,165.129c0-1.105,0.895-2,2-2c1.105,0,2,0.895,2,2
			C268.565,167.329,264.565,167.329,264.565,165.129z"/>
	</g>
</g>
<g>
	<g>
		<path d="M244.564,205.129c0,9.941-8.059,18-18,18c-9.941,0-18-8.059-18-18h-12c0,16.569,13.431,30,30,30s30-13.431,30-30H244.564z
			"/>
	</g>
</g>
<g>
</g>
<g>
</g>
<g>
</g>
<g>
</g>
<g>
</g>
<g>
</g>
<g>
</g>
<g>
</g>
<g>
</g>
<g>
</g>
<g>
</g>
<g>
</g>
<g>
</g>
<g>
</g>
<g>
</g>
</svg>
