<?xml version="1.0" encoding="iso-8859-1"?>
<!-- Generator: Adobe Illustrator 19.0.0, SVG Export Plug-In . SVG Version: 6.00 Build 0)  -->
<svg version="1.1" id="Capa_1" xmlns="http://www.w3.org/2000/svg" xmlns:xlink="http://www.w3.org/1999/xlink" x="0px" y="0px"
	 viewBox="0 0 480 480" style="enable-background:new 0 0 480 480;" xml:space="preserve">
<g>
	<g>
		<path d="M368.002,328h-64v-44.992c11.723-6.811,21.882-16.013,29.816-27.008h10.184c2.904,0,5.581-1.574,6.992-4.112l20.576-37.04
			c13.385-24.126,20.416-51.258,20.432-78.848C391.958,60.845,330.997-0.044,255.842,0c-18.131,0.011-36.077,3.644-52.784,10.688
			c-60.52,25.6-92.272,96.552-72.28,161.528L149.17,232h-29.168c-17.673,0-32,14.327-32,32c0.02,6.817,2.236,13.446,6.32,18.904
			C65,292.643,49.126,324.309,58.865,353.63c6.745,20.306,24.481,34.986,45.689,37.818c3.748,27.769,27.427,48.504,55.448,48.552h16
			c30.928,0,56-25.072,56-56c0-30.928-25.072-56-56-56h-24v16h24c22.091,0,40,17.909,40,40c0,22.091-17.909,40-40,40h-16
			c-19.001-0.024-35.373-13.389-39.2-32h39.2v-16h-48c-22.091,0-40-17.909-40-40c0-22.091,17.909-40,40-40h48v-16h-40
			c-8.837,0-16-7.163-16-16s7.163-16,16-16h40c4.418,0.001,8.001-3.58,8.002-7.998c0-0.798-0.119-1.591-0.354-2.354l-0.152-0.472
			c8.177,19.264,22.392,35.349,40.504,45.832V336h16v-45.6c20.68,7.466,43.32,7.466,64,0V336c0,4.418,3.582,8,8,8h54.864
			c-3.637,14.085-16.317,23.945-30.864,24h-72v16h72c23.397-0.043,43.361-16.934,47.28-40h0.72c22.08,0.026,39.974,17.92,40,40v80
			h-304v-24h-16v32c0,4.418,3.582,8,8,8h320c4.418,0,8-3.582,8-8v-88C423.967,353.087,398.916,328.035,368.002,328z M152.002,144v16
			h8v40c0.001,6.376,0.639,12.735,1.904,18.984l-15.84-51.472c-17.6-57.232,10.168-119.64,63.2-142.088
			c61.101-25.772,131.526,2.868,157.297,63.969c6.222,14.751,9.431,30.597,9.439,46.607c-0.011,24.87-6.342,49.329-18.4,71.08
			l-8.176,14.704c1.693-7.138,2.558-14.448,2.576-21.784v-40h8v-16h-23.016c-11.094-0.014-20.738-7.616-23.344-18.4l-17.944-63.76
			c-0.968-3.451-4.112-5.837-7.696-5.84c-3.575-0.001-6.716,2.37-7.696,5.808l-16.488,57.952
			c-3.558,14.235-16.343,24.227-31.016,24.24H152.002z M256.002,280c-44.183,0-80-35.817-80-80v-40h56.8
			c21.946,0.052,41.115-14.83,46.504-36.104l8.688-30.52l10.216,36.32c4.352,17.437,19.825,29.811,37.792,30.224V200
			C336.002,244.183,300.185,280,256.002,280z"/>
	</g>
</g>
<g>
	<g>
		<path d="M216.002,178c-7.732,0-14,6.268-14,14s6.268,14,14,14s14-6.268,14-14C229.993,184.272,223.731,178.009,216.002,178z
			 M214.002,192c0-1.105,0.895-2,2-2s2,0.895,2,2C218.002,194.2,214.002,194.2,214.002,192z"/>
	</g>
</g>
<g>
	<g>
		<path d="M296.002,178c-7.732,0-14,6.268-14,14s6.268,14,14,14s14-6.268,14-14C309.993,184.272,303.731,178.009,296.002,178z
			 M294.002,192c0-1.105,0.895-2,2-2c1.105,0,2,0.895,2,2C298.002,194.2,294.002,194.2,294.002,192z"/>
	</g>
</g>
<g>
	<g>
		<path d="M274.002,232c-0.009,9.937-8.063,17.991-18,18c-9.937-0.009-17.991-8.063-18-18h-12c0,16.569,13.431,30,30,30
			s30-13.431,30-30H274.002z"/>
	</g>
</g>
<g>
</g>
<g>
</g>
<g>
</g>
<g>
</g>
<g>
</g>
<g>
</g>
<g>
</g>
<g>
</g>
<g>
</g>
<g>
</g>
<g>
</g>
<g>
</g>
<g>
</g>
<g>
</g>
<g>
</g>
</svg>
