<?xml version="1.0" encoding="iso-8859-1"?>
<!-- Generator: Adobe Illustrator 19.0.0, SVG Export Plug-In . SVG Version: 6.00 Build 0)  -->
<svg version="1.1" id="Capa_1" xmlns="http://www.w3.org/2000/svg" xmlns:xlink="http://www.w3.org/1999/xlink" x="0px" y="0px"
	 viewBox="0 0 480.009 480.009" style="enable-background:new 0 0 480.009 480.009;" xml:space="preserve">
<g>
	<g>
		<path d="M407.331,200.589c-3.015-15.978-15.402-28.54-31.336-31.78v-29.184c1.094-73.624-55.939-135.073-129.44-139.464
			C171.531-3.462,107.776,54.42,104.153,129.443c-0.106,2.187-0.158,4.377-0.158,6.566v32.8
			c-21.646,4.413-35.616,25.538-31.203,47.184c3.245,15.917,15.794,28.291,31.755,31.312v0.008
			c3.637,23.399,23.768,40.666,47.448,40.696h16v-16h-16c-17.673,0-32-14.327-32-32c0-4.418-3.582-8-8-8c-13.255,0-24-10.745-24-24
			s10.745-24,24-24c4.418,0,8-3.582,8-8v-40C119.992,69.735,173.716,16.007,239.99,16.004c1.941,0,3.882,0.047,5.821,0.141
			c64.953,4.012,115.257,58.412,114.184,123.48v36.384c0,4.418,3.582,8,8,8c13.255,0,24,10.745,24,24s-10.745,24-24,24
			c-4.418,0-8,3.582-8,8c0,17.673-14.327,32-32,32h-16v16h16c23.68-0.03,43.811-17.297,47.448-40.696
			C397.151,243.216,411.428,222.297,407.331,200.589z"/>
	</g>
</g>
<g>
	<g>
		<path d="M351.995,328.009h-64v-44.992c29.662-17.125,47.953-48.757,48-83.008v-40h8v-16h-23.016
			c-11.094-0.014-20.738-7.616-23.344-18.4l-17.936-63.76c-0.968-3.454-4.117-5.841-7.704-5.84c-3.565,0.039-6.69,2.393-7.712,5.808
			l-16.48,57.952c-3.558,14.233-16.338,24.223-31.008,24.24h-80.8v16h8v40c0.047,34.251,18.338,65.883,48,83.008v44.992h-64
			c-30.913,0.035-55.965,25.087-56,56v88c0,4.418,3.582,8,8,8h320c4.418,0,8-3.582,8-8v-88
			C407.959,353.096,382.908,328.045,351.995,328.009z M159.995,200.009v-40h56.8c21.946,0.052,41.115-14.83,46.504-36.104
			l8.68-30.52l10.224,36.328c4.358,17.432,19.828,29.801,37.792,30.216v40.08c0,44.183-35.817,80-80,80
			C195.812,280.009,159.995,244.192,159.995,200.009z M199.995,344.009c4.418,0,8-3.582,8-8v-45.6c20.68,7.466,43.32,7.466,64,0
			v45.6c0,4.418,3.582,8,8,8h14.528c-3.378,9.555-12.394,15.958-22.528,16h-64c-10.134-0.042-19.15-6.445-22.528-16H199.995z
			 M391.995,464.009h-304v-80c0.026-22.08,17.92-39.974,40-40h40.8c3.825,18.613,20.198,31.979,39.2,32h64
			c19.002-0.021,35.375-13.387,39.2-32h40.8c22.08,0.026,39.974,17.92,40,40V464.009z"/>
	</g>
</g>
<g>
	<g>
		<path d="M199.995,178.009c-7.732,0-14,6.268-14,14s6.268,14,14,14s14-6.268,14-14
			C213.986,184.281,207.723,178.018,199.995,178.009z M197.995,192.009c0-1.105,0.895-2,2-2s2,0.895,2,2
			C201.995,194.209,197.995,194.209,197.995,192.009z"/>
	</g>
</g>
<g>
	<g>
		<path d="M279.995,178.009c-7.732,0-14,6.268-14,14c0.009,7.728,6.272,13.991,14,14c7.732,0,14-6.268,14-14
			S287.727,178.009,279.995,178.009z M277.995,192.009c0-1.105,0.895-2,2-2c1.105,0,2,0.895,2,2
			C281.995,194.209,277.995,194.209,277.995,192.009z"/>
	</g>
</g>
<g>
	<g>
		<path d="M257.995,232.009c0,9.941-8.059,18-18,18c-9.941,0-18-8.059-18-18h-12c0,16.569,13.431,30,30,30s30-13.431,30-30H257.995z
			"/>
	</g>
</g>
<g>
</g>
<g>
</g>
<g>
</g>
<g>
</g>
<g>
</g>
<g>
</g>
<g>
</g>
<g>
</g>
<g>
</g>
<g>
</g>
<g>
</g>
<g>
</g>
<g>
</g>
<g>
</g>
<g>
</g>
</svg>
