<?xml version="1.0" encoding="iso-8859-1"?>
<!-- Generator: Adobe Illustrator 19.0.0, SVG Export Plug-In . SVG Version: 6.00 Build 0)  -->
<svg version="1.1" id="Capa_1" xmlns="http://www.w3.org/2000/svg" xmlns:xlink="http://www.w3.org/1999/xlink" x="0px" y="0px"
	 viewBox="0 0 480.064 480.064" style="enable-background:new 0 0 480.064 480.064;" xml:space="preserve">
<g>
	<g>
		<path d="M369.04,184.52c4.61-14.488,6.968-29.597,6.992-44.8C377.2,69.354,325.083,9.447,255.232,0.864
			c-74.64-8.395-141.953,45.308-150.348,119.948c-0.57,5.064-0.854,10.156-0.852,15.252v3.616c0.024,15.203,2.382,30.313,6.992,44.8
			c-44.865,4.676-78.957,42.476-78.992,87.584v48c0,4.418,3.582,8,8,8h32c42.496,0.202,78.986-30.173,86.496-72h3.688
			c7.934,10.995,18.093,20.197,29.816,27.008v44.992h-64c-30.913,0.035-55.965,25.087-56,56v88c0,4.418,3.582,8,8,8h320
			c4.418,0,8-3.582,8-8v-88c-0.035-30.913-25.087-55.965-56-56h-64v-44.992c11.723-6.811,21.882-16.013,29.816-27.008h3.688
			c7.51,41.827,44,72.202,86.496,72h32c4.418,0,8-3.582,8-8v-48C447.976,226.971,413.89,189.195,369.04,184.52z M72.032,312.064h-24
			v-40c0.048-38.56,30.466-70.237,68.992-71.848c1.744,3.912,3.6,7.784,5.688,11.536l20.664,37.2
			C139.097,285.068,108.4,312.223,72.032,312.064z M352.032,344.064c22.08,0.026,39.974,17.92,40,40v80h-304v-80
			c0.026-22.08,17.92-39.974,40-40h32c0,44.183,35.817,80,80,80s80-35.817,80-80H352.032z M304.032,344.064
			c0,35.346-28.654,64-64,64c-35.346,0-64-28.654-64-64h16c0,26.51,21.49,48,48,48c26.51,0,48-21.49,48-48H304.032z
			 M208.032,344.064v-53.6c20.68,7.466,43.32,7.466,64,0v53.6c0,17.673-14.327,32-32,32
			C222.359,376.064,208.032,361.737,208.032,344.064z M320.032,200.064c-0.048,44.163-35.837,79.951-80,80
			c-44.163-0.049-79.951-35.837-80-80v-40h56.8c21.946,0.052,41.115-14.83,46.504-36.104l8.688-30.52l10.216,36.32
			c4.352,17.437,19.825,29.811,37.792,30.224V200.064z M321.016,144.064c-11.094-0.014-20.738-7.616-23.344-18.4l-17.944-63.76
			c-0.968-3.451-4.112-5.837-7.696-5.84c-3.575-0.001-6.716,2.37-7.696,5.808l-16.488,57.952
			c-3.558,14.235-16.343,24.227-31.016,24.24h-80.8v16h8v40c0.023,7.337,0.893,14.646,2.592,21.784l-9.928-17.864
			c-10.917-19.675-16.651-41.803-16.664-64.304v-3.616c0.009-66.296,53.761-120.032,120.057-120.023
			c4.474,0.001,8.945,0.251,13.391,0.751c61.718,7.686,107.688,60.704,106.552,122.888c-0.013,22.501-5.747,44.629-16.664,64.304
			l-9.928,17.864c1.699-7.138,2.569-14.447,2.592-21.784v-40h8v-16H321.016z M432.032,312.064h-24
			c-36.368,0.159-67.065-26.997-71.344-63.112l20.664-37.2c2.088-3.752,3.944-7.624,5.688-11.536
			c38.526,1.611,68.944,33.288,68.992,71.848V312.064z"/>
	</g>
</g>
<g>
	<g>
		<path d="M200.032,178.064c-7.732,0-14,6.268-14,14s6.268,14,14,14s14-6.268,14-14C214.023,184.336,207.76,178.073,200.032,178.064
			z M198.032,192.064c0-1.105,0.895-2,2-2s2,0.895,2,2C202.032,194.264,198.032,194.264,198.032,192.064z"/>
	</g>
</g>
<g>
	<g>
		<path d="M280.032,178.064c-7.732,0-14,6.268-14,14s6.268,14,14,14s14-6.268,14-14C294.023,184.336,287.76,178.073,280.032,178.064
			z M278.032,192.064c0-1.105,0.895-2,2-2c1.105,0,2,0.895,2,2C282.032,194.264,278.032,194.264,278.032,192.064z"/>
	</g>
</g>
<g>
	<g>
		<path d="M258.032,232.064c-0.009,9.937-8.063,17.991-18,18c-9.937-0.009-17.991-8.063-18-18h-12c0,16.569,13.431,30,30,30
			s30-13.431,30-30H258.032z"/>
	</g>
</g>
<g>
</g>
<g>
</g>
<g>
</g>
<g>
</g>
<g>
</g>
<g>
</g>
<g>
</g>
<g>
</g>
<g>
</g>
<g>
</g>
<g>
</g>
<g>
</g>
<g>
</g>
<g>
</g>
<g>
</g>
</svg>
